<svg xmlns="http://www.w3.org/2000/svg" viewBox="0 0 24 24" width="20" height="20">
  <path d="M21 0H3C1.34 0 0 1.34 0 3v18c0 1.66 1.34 3 3 3h18c1.66 0 3-1.34 3-3V3c0-1.66-1.34-3-3-3z" fill="currentColor"/>
  <path d="M4.5 5h5c1.2 0 2.1.3 2.75.85.65.55.95 1.3.95 2.25 0 .65-.15 1.2-.5 1.65-.35.45-.8.75-1.3.95v.05c.7.15 1.2.45 1.6.95.4.5.6 1.1.6 1.85 0 1.05-.35 1.85-1.05 2.45-.7.6-1.65.9-2.85.9H4.5V5zm2.7 5h1.8c.55 0 .95-.12 1.25-.38.3-.26.45-.62.45-1.07 0-.5-.15-.87-.45-1.12-.3-.25-.75-.38-1.3-.38H7.2V10zm0 5.05h2.15c.6 0 1.1-.15 1.4-.42.3-.28.5-.68.5-1.2 0-.5-.17-.88-.5-1.15-.33-.27-.82-.4-1.45-.4H7.2v3.17z" fill="var(--bg-color, #fff)"/>
  <path d="M17.5 14c-.9 0-1.6.7-1.6 1.6 0 .9.7 1.6 1.6 1.6.9 0 1.6-.7 1.6-1.6 0-.9-.7-1.6-1.6-1.6z" fill="var(--bg-color, #fff)"/>
  <path d="M15.9 5h3.2v7h-3.2z" fill="var(--bg-color, #fff)"/>
</svg>
